<?xml version="1.0" encoding="UTF-8" standalone="no"?>
<!-- Created with Inkscape (http://www.inkscape.org/) -->
<svg
   xmlns:dc="http://purl.org/dc/elements/1.1/"
   xmlns:cc="http://creativecommons.org/ns#"
   xmlns:rdf="http://www.w3.org/1999/02/22-rdf-syntax-ns#"
   xmlns:svg="http://www.w3.org/2000/svg"
   xmlns="http://www.w3.org/2000/svg"
   xmlns:sodipodi="http://sodipodi.sourceforge.net/DTD/sodipodi-0.dtd"
   xmlns:inkscape="http://www.inkscape.org/namespaces/inkscape"
   width="300"
   height="120"
   id="svg2"
   sodipodi:version="0.32"
   inkscape:version="0.46"
   version="1.0"
   inkscape:export-filename="/media/data/projects/documentation/xor-gate.org/logo/logo.png"
   inkscape:export-xdpi="90"
   inkscape:export-ydpi="90"
   sodipodi:docname="website-logo-268x74.svg"
   inkscape:output_extension="org.inkscape.output.svg.inkscape">
  <defs
     id="defs4">
    <inkscape:perspective
       sodipodi:type="inkscape:persp3d"
       inkscape:vp_x="0 : 526.18109 : 1"
       inkscape:vp_y="0 : 1000 : 0"
       inkscape:vp_z="744.09448 : 526.18109 : 1"
       inkscape:persp3d-origin="372.04724 : 350.78739 : 1"
       id="perspective10" />
    <inkscape:perspective
       id="perspective2438"
       inkscape:persp3d-origin="372.04724 : 350.78739 : 1"
       inkscape:vp_z="744.09448 : 526.18109 : 1"
       inkscape:vp_y="0 : 1000 : 0"
       inkscape:vp_x="0 : 526.18109 : 1"
       sodipodi:type="inkscape:persp3d" />
    <linearGradient
       id="linearGradient3306">
      <stop
         id="stop3308"
         offset="0"
         style="stop-color:#001149;stop-opacity:1;" />
      <stop
         id="stop3310"
         offset="1"
         style="stop-color:#44516e;stop-opacity:1;" />
    </linearGradient>
  </defs>
  <sodipodi:namedview
     id="base"
     pagecolor="#ffffff"
     bordercolor="#666666"
     borderopacity="1.0"
     gridtolerance="10000"
     guidetolerance="10"
     objecttolerance="10"
     inkscape:pageopacity="0.0"
     inkscape:pageshadow="2"
     inkscape:zoom="3.8346667"
     inkscape:cx="153.8143"
     inkscape:cy="75.27222"
     inkscape:document-units="px"
     inkscape:current-layer="g2530"
     showgrid="false"
     inkscape:window-width="1918"
     inkscape:window-height="1059"
     inkscape:window-x="0"
     inkscape:window-y="19" />
  <metadata
     id="metadata7">
    <rdf:RDF>
      <cc:Work
         rdf:about="">
        <dc:format>image/svg+xml</dc:format>
        <dc:type
           rdf:resource="http://purl.org/dc/dcmitype/StillImage" />
      </cc:Work>
    </rdf:RDF>
  </metadata>
  <g
     inkscape:label="Layer 1"
     inkscape:groupmode="layer"
     id="layer1">
    <g
       id="g2530"
       inkscape:label="Layer 1"
       transform="translate(-86.649619,-681.95675)">
      <g
         id="g2568"
         transform="matrix(0.5956636,0,0,0.5956636,286.45399,451.79196)"
         style="fill:#000000">
        <g
           transform="matrix(3.781361,0,0,3.7504309,-602.29719,-749.14146)"
           id="g3314"
           style="fill:#000000">
          <path
             style="font-size:40px;font-style:normal;font-weight:normal;text-align:center;text-anchor:middle;fill:#000000;fill-opacity:1;stroke:none;stroke-width:1px;stroke-linecap:butt;stroke-linejoin:miter;stroke-opacity:1;font-family:Bitstream Vera Sans"
             d="M 87.230798,303.07157 L 89.602539,303.07157 L 93.657447,309.13752 L 97.734156,303.07157 L 100.10592,303.07157 L 94.859663,310.90819 L 100.4557,319.38956 L 98.083943,319.38956 L 93.493418,312.44917 L 88.8702,319.38956 L 86.487499,319.38956 L 92.31307,310.67863 L 87.230798,303.07157 M 108.01905,308.5583 C 106.94059,308.55831 106.08809,308.98084 105.46149,309.82619 C 104.83483,310.66407 104.52154,311.8153 104.52154,313.27992 C 104.52154,314.74446 104.83116,315.89937 105.45059,316.74458 C 106.07718,317.58259 106.93333,318.00155 108.01905,318.00155 C 109.09014,318.00155 109.93896,317.57894 110.56564,316.73368 C 111.19215,315.88845 111.50555,314.73718 111.50557,313.27992 C 111.50555,311.82989 111.19215,310.68226 110.56564,309.83703 C 109.93896,308.98453 109.09014,308.55831 108.01905,308.5583 M 108.01905,306.85324 C 109.76778,306.85326 111.14123,307.42156 112.13952,308.5583 C 113.13779,309.69501 113.63689,311.26881 113.63689,313.27992 C 113.63689,315.28369 113.13779,316.85752 112.13952,318.00155 C 111.14123,319.13825 109.76778,319.70655 108.01905,319.70655 C 106.26301,319.70655 104.88589,319.13825 103.88769,318.00155 C 102.8966,316.85752 102.40108,315.28369 102.40108,313.27992 C 102.40108,311.26881 102.8966,309.69501 103.88769,308.5583 C 104.88589,307.42156 106.26301,306.85326 108.01905,306.85324 M 124.05288,309.02825 C 123.82703,308.89708 123.5792,308.80243 123.30965,308.74409 C 123.0473,308.67851 122.75589,308.64577 122.43526,308.64576 C 121.29858,308.64577 120.42422,309.01734 119.81213,309.76052 C 119.20737,310.4965 118.90499,311.55665 118.905,312.94109 L 118.905,319.38956 L 116.883,319.38956 L 116.883,307.1483 L 118.905,307.1483 L 118.905,309.0501 C 119.32762,308.30688 119.87774,307.75677 120.55538,307.39973 C 121.23311,307.03539 122.05635,306.85326 123.02551,306.85324 C 123.16401,306.85326 123.31694,306.86416 123.48452,306.88602 C 123.65209,306.90056 123.83786,306.92609 124.04197,306.96253 L 124.05288,309.02825 M 123.72497,312.36182 L 129.61607,312.36182 L 129.61607,314.15429 L 123.72497,314.15429 L 123.72497,312.36182 M 144.87392,317.06155 L 144.87392,312.67878 L 141.2671,312.67878 L 141.2671,310.86438 L 147.05985,310.86438 L 147.05985,317.87033 C 146.2073,318.47517 145.26738,318.93418 144.23996,319.24756 C 143.21251,319.55352 142.11599,319.70655 140.95016,319.70655 C 138.3999,319.70655 136.40343,318.96329 134.96073,317.47691 C 133.52526,315.98317 132.80758,313.90653 132.80758,311.24699 C 132.80758,308.58014 133.52526,306.5035 134.96073,305.01708 C 136.40343,303.52331 138.3999,302.77646 140.95016,302.77643 C 142.01396,302.77646 143.02316,302.90766 143.97772,303.16995 C 144.93946,303.43231 145.82478,303.81844 146.63362,304.3285 L 146.63362,306.67844 C 145.81745,305.98614 144.95038,305.46516 144.03229,305.11545 C 143.11422,304.76566 142.14879,304.59079 141.13593,304.59077 C 139.1395,304.59079 137.63846,305.14819 136.63297,306.26304 C 135.63469,307.37787 135.13559,309.03915 135.1356,311.24699 C 135.13559,313.44758 135.63469,315.10523 136.63297,316.21995 C 137.63846,317.33484 139.1395,317.89221 141.13593,317.89221 C 141.91559,317.89221 142.61144,317.82666 143.22359,317.69538 C 143.83559,317.55705 144.38571,317.34573 144.87392,317.06155 M 156.57958,313.23614 C 154.95471,313.23615 153.82896,313.42197 153.20239,313.79358 C 152.5757,314.16525 152.26243,314.79915 152.26243,315.69533 C 152.26243,316.40941 152.49555,316.97775 152.96191,317.40033 C 153.43548,317.81572 154.0767,318.02337 154.88546,318.02337 C 156.00035,318.02337 156.89289,317.62991 157.56327,316.84296 C 158.24091,316.04872 158.57971,314.99585 158.57973,313.68432 L 158.57973,313.23614 L 156.57958,313.23614 M 160.5908,312.40551 L 160.5908,319.38956 L 158.57973,319.38956 L 158.57973,317.53151 C 158.12067,318.27468 157.54867,318.82495 156.86383,319.18194 C 156.1788,319.53162 155.34089,319.70655 154.3499,319.70655 C 153.09667,319.70655 152.09838,319.35682 151.35519,318.6573 C 150.61923,317.95053 150.25137,317.00689 150.25137,315.8265 C 150.25137,314.4494 150.71034,313.41108 151.62843,312.71157 C 152.55377,312.01211 153.93095,311.66234 155.75989,311.66232 L 158.57973,311.66232 L 158.57973,311.46556 C 158.57971,310.5402 158.27369,309.8262 157.66165,309.32331 C 157.0569,308.81334 156.20434,308.55831 155.10406,308.5583 C 154.40458,308.55831 153.72327,308.64215 153.06026,308.80968 C 152.3972,308.97724 151.75959,309.22863 151.14757,309.56383 L 151.14757,307.70582 C 151.88345,307.42156 152.59752,307.21026 153.28979,307.07183 C 153.98195,306.92609 154.656,306.85326 155.31175,306.85324 C 157.08234,306.85326 158.40487,307.31231 159.27922,308.23038 C 160.15359,309.14851 160.59078,310.5402 160.5908,312.40551 M 166.77701,303.67274 L 166.77701,307.1483 L 170.9193,307.1483 L 170.9193,308.71127 L 166.77701,308.71127 L 166.77701,315.35652 C 166.77701,316.35479 166.91176,316.99596 167.18139,317.28018 C 167.45829,317.56431 168.01567,317.70644 168.85362,317.70644 L 170.9193,317.70644 L 170.9193,319.38956 L 168.85362,319.38956 C 167.30163,319.38956 166.2305,319.1018 165.64031,318.52616 C 165.05014,317.94322 164.755,316.88667 164.755,315.35652 L 164.755,308.71127 L 163.27945,308.71127 L 163.27945,307.1483 L 164.755,307.1483 L 164.755,303.67274 L 166.77701,303.67274 M 184.04581,312.76618 L 184.04581,313.7499 L 174.79929,313.7499 C 174.88683,315.13435 175.30215,316.19085 176.04539,316.91949 C 176.79586,317.64084 177.83775,318.00155 179.17125,318.00155 C 179.94362,318.00155 180.69043,317.90678 181.4118,317.7173 C 182.14044,317.52784 182.86184,317.24369 183.57588,316.86479 L 183.57588,318.76655 C 182.85451,319.07262 182.115,319.3058 181.35717,319.46614 C 180.59936,319.62635 179.83076,319.70655 179.05104,319.70655 C 177.09826,319.70655 175.5499,319.13825 174.40597,318.00155 C 173.26922,316.86479 172.70081,315.32742 172.70081,313.38912 C 172.70081,311.38544 173.24007,309.79694 174.31848,308.62388 C 175.40415,307.44345 176.86504,306.85326 178.70124,306.85324 C 180.348,306.85326 181.64861,307.38513 182.60315,308.44898 C 183.56498,309.50551 184.0458,310.94461 184.04581,312.76618 M 182.03475,312.17599 C 182.02025,311.07575 181.71056,310.19776 181.10577,309.54193 C 180.5084,308.88618 179.7141,308.55831 178.72313,308.5583 C 177.60101,308.55831 176.70106,308.87523 176.02351,309.50915 C 175.35311,310.1431 174.96693,311.03572 174.8649,312.18689 L 182.03475,312.17599 M 70.573962,331.05155 L 80.891591,331.05155 L 80.891591,332.90962 L 72.781719,332.90962 L 72.781719,337.74053 L 80.552745,337.74053 L 80.552745,339.59856 L 72.781719,339.59856 L 72.781719,345.51151 L 81.088277,345.51151 L 81.088277,347.36957 L 70.573962,347.36957 L 70.573962,331.05155 M 94.783209,339.98113 L 94.783209,347.36957 L 92.772152,347.36957 L 92.772152,340.04669 C 92.772152,338.88815 92.546199,338.02112 92.094504,337.44542 C 91.642715,336.86985 90.965071,336.58191 90.061535,336.58189 C 88.975876,336.58191 88.119697,336.92808 87.493042,337.62025 C 86.866428,338.31249 86.553072,339.25611 86.553072,340.45111 L 86.553072,347.36957 L 84.531198,347.36957 L 84.531198,335.1283 L 86.553072,335.1283 L 86.553072,337.0301 C 87.034052,336.29413 87.598691,335.74402 88.247165,335.37969 C 88.90301,335.01539 89.657174,334.83321 90.509699,334.83319 C 91.915985,334.83321 92.979786,335.27038 93.701147,336.14483 C 94.422481,337.0119 94.7832,338.29069 94.783209,339.98113 M 106.87142,341.10683 C 106.87141,339.64958 106.56901,338.52018 105.96424,337.71869 C 105.36676,336.91725 104.52513,336.5164 103.43946,336.51639 C 102.36106,336.5164 101.51945,336.91725 100.91473,337.71869 C 100.31726,338.52018 100.01851,339.64958 100.01851,341.10683 C 100.01851,342.55683 100.31726,343.68265 100.91473,344.4842 C 101.51945,345.2857 102.36106,345.68637 103.43946,345.68637 C 104.52513,345.68637 105.36676,345.2857 105.96424,344.4842 C 106.56901,343.68265 106.87141,342.55683 106.87142,341.10683 M 108.88249,345.85035 C 108.88248,347.93426 108.41974,349.4827 107.49441,350.49546 C 106.56901,351.51558 105.15181,352.02559 103.24276,352.0256 C 102.53586,352.02559 101.86922,351.971 101.24255,351.86167 C 100.61598,351.75968 100.00752,351.59936 99.417388,351.38078 L 99.417388,349.4244 C 100.00752,349.74496 100.59047,349.98176 101.16614,350.1348 C 101.74177,350.28781 102.32831,350.36436 102.92579,350.36437 C 104.24466,350.36436 105.232,350.01812 105.88774,349.32599 C 106.54364,348.64105 106.87141,347.60277 106.87142,346.21101 L 106.87142,345.21638 C 106.4561,345.93781 105.92416,346.47699 105.27569,346.83402 C 104.62719,347.19111 103.85117,347.36957 102.94772,347.36957 C 101.44666,347.36957 100.23711,346.79753 99.318986,345.65356 C 98.400961,344.50968 97.941801,342.99411 97.941801,341.10683 C 97.941801,339.21239 98.400961,337.69314 99.318986,336.54921 C 100.23711,335.40515 101.44666,334.83321 102.94772,334.83319 C 103.85117,334.83321 104.62719,335.01179 105.27569,335.36875 C 105.92416,335.72581 106.4561,336.26501 106.87142,336.98638 L 106.87142,335.1283 L 108.88249,335.1283 L 108.88249,345.85035 M 113.02483,335.1283 L 115.03585,335.1283 L 115.03585,347.36957 L 113.02483,347.36957 L 113.02483,335.1283 M 129.40841,339.98113 L 129.40841,347.36957 L 127.3974,347.36957 L 127.3974,340.04669 C 127.39739,338.88815 127.17141,338.02112 126.71973,337.44542 C 126.26795,336.86985 125.59031,336.58191 124.68679,336.58189 C 123.60109,336.58191 122.74492,336.92808 122.11828,337.62025 C 121.49165,338.31249 121.17831,339.25611 121.17832,340.45111 L 121.17832,347.36957 L 119.1564,347.36957 L 119.1564,335.1283 L 121.17832,335.1283 L 121.17832,337.0301 C 121.65929,336.29413 122.22392,335.74402 122.8724,335.37969 C 123.52824,335.01539 124.2824,334.83321 125.13491,334.83319 C 126.5412,334.83321 127.605,335.27038 128.32638,336.14483 C 129.0477,337.0119 129.4084,338.29069 129.40841,339.98113 M 143.9121,340.74621 L 143.9121,341.72986 L 134.66559,341.72986 C 134.75298,343.11426 135.16831,344.17086 135.91156,344.89942 C 136.66208,345.62079 137.70406,345.98151 139.03744,345.98151 C 139.80982,345.98151 140.55664,345.88675 141.27808,345.69735 C 142.00666,345.50788 142.72803,345.22371 143.4421,344.84482 L 143.4421,346.74661 C 142.72075,347.05257 141.9812,347.28578 141.22331,347.4461 C 140.4656,347.60638 139.69687,347.68658 138.91724,347.68658 C 136.96447,347.68658 135.41611,347.11816 134.27211,345.98151 C 133.13548,344.84482 132.56709,343.30736 132.56709,341.36918 C 132.56709,339.36547 133.10622,337.77696 134.18473,336.6038 C 135.27034,335.42338 136.73126,334.83321 138.56746,334.83319 C 140.21424,334.83321 141.51485,335.3651 142.4694,336.42894 C 143.43114,337.48547 143.91209,338.92462 143.9121,340.74621 M 141.90107,340.15594 C 141.88642,339.05568 141.57684,338.17771 140.97205,337.52186 C 140.37452,336.86621 139.5803,336.53826 138.58934,336.53825 C 137.46728,336.53826 136.56734,336.85522 135.88969,337.48922 C 135.21936,338.1231 134.83316,339.01576 134.73111,340.16693 L 141.90107,340.15594 M 157.63977,340.74621 L 157.63977,341.72986 L 148.39324,341.72986 C 148.48068,343.11426 148.89603,344.17086 149.63923,344.89942 C 150.38972,345.62079 151.43169,345.98151 152.76506,345.98151 C 153.53747,345.98151 154.28433,345.88675 155.00573,345.69735 C 155.73437,345.50788 156.45569,345.22371 157.16982,344.84482 L 157.16982,346.74661 C 156.4484,347.05257 155.70886,347.28578 154.9511,347.4461 C 154.19332,347.60638 153.42446,347.68658 152.6449,347.68658 C 150.69213,347.68658 149.14374,347.11816 147.9998,345.98151 C 146.86312,344.84482 146.29474,343.30736 146.29474,341.36918 C 146.29474,339.36547 146.834,337.77696 147.91237,336.6038 C 148.99803,335.42338 150.45898,334.83321 152.29514,334.83319 C 153.94187,334.83321 155.24257,335.3651 156.19705,336.42894 C 157.15889,337.48547 157.63975,338.92462 157.63977,340.74621 M 155.6287,340.15594 C 155.61417,339.05568 155.30451,338.17771 154.69968,337.52186 C 154.10225,336.86621 153.30794,336.53826 152.31704,336.53825 C 151.19486,336.53826 150.29504,336.85522 149.61731,337.48922 C 148.94707,338.1231 148.56086,339.01576 148.45878,340.16693 L 155.6287,340.15594 M 167.99016,337.00821 C 167.76422,336.87709 167.51657,336.78241 167.247,336.72414 C 166.98462,336.65858 166.69325,336.62567 166.37257,336.62566 C 165.23587,336.62567 164.36155,336.99729 163.74948,337.74053 C 163.14466,338.47641 162.84235,339.53658 162.84235,340.92116 L 162.84235,347.36957 L 160.82027,347.36957 L 160.82027,335.1283 L 162.84235,335.1283 L 162.84235,337.0301 C 163.26492,336.28687 163.81504,335.73677 164.4927,335.37969 C 165.17033,335.01539 165.99368,334.83321 166.96279,334.83319 C 167.10124,334.83321 167.25426,334.84414 167.42181,334.86606 C 167.58952,334.88058 167.77523,334.90611 167.97928,334.94249 L 167.99016,337.00821 M 170.12148,335.1283 L 172.13255,335.1283 L 172.13255,347.36957 L 170.12148,347.36957 L 170.12148,335.1283 M 186.50509,339.98113 L 186.50509,347.36957 L 184.49401,347.36957 L 184.49401,340.04669 C 184.49399,338.88815 184.26815,338.02112 183.81633,337.44542 C 183.36462,336.86985 182.68693,336.58191 181.78346,336.58189 C 180.69772,336.58191 179.84159,336.92808 179.21497,337.62025 C 178.58832,338.31249 178.27496,339.25611 178.27497,340.45111 L 178.27497,347.36957 L 176.25301,347.36957 L 176.25301,335.1283 L 178.27497,335.1283 L 178.27497,337.0301 C 178.75589,336.29413 179.32062,335.74402 179.9691,335.37969 C 180.62486,335.01539 181.37902,334.83321 182.23158,334.83319 C 183.63783,334.83321 184.70165,335.27038 185.42305,336.14483 C 186.14431,337.0119 186.50509,338.29069 186.50509,339.98113 M 198.59327,341.10683 C 198.59327,339.64958 198.29085,338.52018 197.68608,337.71869 C 197.08865,336.91725 196.24713,336.5164 195.16139,336.51639 C 194.08289,336.5164 193.24146,336.91725 192.63654,337.71869 C 192.0391,338.52018 191.74036,339.64958 191.74037,341.10683 C 191.74036,342.55683 192.0391,343.68265 192.63654,344.4842 C 193.24146,345.2857 194.08289,345.68637 195.16139,345.68637 C 196.24713,345.68637 197.08865,345.2857 197.68608,344.4842 C 198.29085,343.68265 198.59327,342.55683 198.59327,341.10683 M 200.60432,345.85035 C 200.60432,347.93426 200.14168,349.4827 199.21626,350.49546 C 198.29085,351.51558 196.87375,352.02559 194.96464,352.0256 C 194.25789,352.02559 193.59112,351.971 192.96448,351.86167 C 192.33788,351.75968 191.72944,351.59936 191.13926,351.38078 L 191.13926,349.4244 C 191.72944,349.74496 192.31237,349.98176 192.88796,350.1348 C 193.46379,350.28781 194.05023,350.36436 194.64764,350.36437 C 195.96651,350.36436 196.95381,350.01812 197.60964,349.32599 C 198.26538,348.64105 198.59327,347.60277 198.59327,346.21101 L 198.59327,345.21638 C 198.17797,345.93781 197.64607,346.47699 196.99759,346.83402 C 196.34918,347.19111 195.57298,347.36957 194.66953,347.36957 C 193.16854,347.36957 191.95898,346.79753 191.04087,345.65356 C 190.12283,344.50968 189.66374,342.99411 189.66374,341.10683 C 189.66374,339.21239 190.12283,337.69314 191.04087,336.54921 C 191.95898,335.40515 193.16854,334.83321 194.66953,334.83319 C 195.57298,334.83321 196.34918,335.01179 196.99759,335.36875 C 197.64607,335.72581 198.17797,336.26501 198.59327,336.98638 L 198.59327,335.1283 L 200.60432,335.1283 L 200.60432,345.85035"
             id="text2383"
             sodipodi:nodetypes="cccccccccccccccscssscccsscscscccssscccccccssccccccccccccccscssssccsscscscccsscssccccccccscscccccsscccsscccccccsccccccccccccccccssccsscsssccccsccccccccccccccccccccsssccccccssccccscscsccccscccsscccssssssscccccccccccccsssccccccssccccccssccsscsssccccscccccccssccsscsssccccsccccssscccccccsscccccccccccsssccccccssccccscscsccccscccsscccssssssscccc" />
          <path
             transform="matrix(0.2487793,0,0,0.2278146,72.066669,277.59898)"
             d="M 384.55245,298.78839 A 5.1454644,5.6189737 0 1 1 374.26152,298.78839 A 5.1454644,5.6189737 0 1 1 384.55245,298.78839 z"
             sodipodi:ry="5.6189737"
             sodipodi:rx="5.1454644"
             sodipodi:cy="298.78839"
             sodipodi:cx="379.40698"
             id="path2391"
             style="opacity:1;fill:none;fill-opacity:1;stroke:#000000;stroke-width:4.70120716;stroke-linejoin:round;stroke-miterlimit:4;stroke-dasharray:none;stroke-dashoffset:0;stroke-opacity:1"
             sodipodi:type="arc" />
          <path
             transform="matrix(0.2487793,0,0,0.2278146,76.843309,263.4228)"
             d="M 384.55245,298.78839 A 5.1454644,5.6189737 0 1 1 374.26152,298.78839 A 5.1454644,5.6189737 0 1 1 384.55245,298.78839 z"
             sodipodi:ry="5.6189737"
             sodipodi:rx="5.1454644"
             sodipodi:cy="298.78839"
             sodipodi:cx="379.40698"
             id="path3332"
             style="opacity:1;fill:none;fill-opacity:1;stroke:#000000;stroke-width:4.70120716;stroke-linejoin:round;stroke-miterlimit:4;stroke-dasharray:none;stroke-dashoffset:0;stroke-opacity:1"
             sodipodi:type="arc" />
          <path
             transform="matrix(0.2487793,0,0,0.2278146,-12.834038,244.2989)"
             d="M 384.55245,298.78839 A 5.1454644,5.6189737 0 1 1 374.26152,298.78839 A 5.1454644,5.6189737 0 1 1 384.55245,298.78839 z"
             sodipodi:ry="5.6189737"
             sodipodi:rx="5.1454644"
             sodipodi:cy="298.78839"
             sodipodi:cx="379.40698"
             id="path3334"
             style="opacity:1;fill:none;fill-opacity:1;stroke:#000000;stroke-width:4.70120716;stroke-linejoin:round;stroke-miterlimit:4;stroke-dasharray:none;stroke-dashoffset:0;stroke-opacity:1"
             sodipodi:type="arc" />
          <path
             transform="matrix(0.2487793,0,0,0.2278146,96.053298,254.36426)"
             d="M 384.55245,298.78839 A 5.1454644,5.6189737 0 1 1 374.26152,298.78839 A 5.1454644,5.6189737 0 1 1 384.55245,298.78839 z"
             sodipodi:ry="5.6189737"
             sodipodi:rx="5.1454644"
             sodipodi:cy="298.78839"
             sodipodi:cx="379.40698"
             id="path3336"
             style="opacity:1;fill:none;fill-opacity:1;stroke:#000000;stroke-width:4.70120716;stroke-linejoin:round;stroke-miterlimit:4;stroke-dasharray:none;stroke-dashoffset:0;stroke-opacity:1"
             sodipodi:type="arc" />
          <path
             transform="matrix(0.2487793,0,0,0.2278146,19.764147,261.53415)"
             d="M 384.55245,298.78839 A 5.1454644,5.6189737 0 1 1 374.26152,298.78839 A 5.1454644,5.6189737 0 1 1 384.55245,298.78839 z"
             sodipodi:ry="5.6189737"
             sodipodi:rx="5.1454644"
             sodipodi:cy="298.78839"
             sodipodi:cx="379.40698"
             id="path3514"
             style="opacity:1;fill:none;fill-opacity:1;stroke:#000000;stroke-width:4.70120716;stroke-linejoin:round;stroke-miterlimit:4;stroke-dasharray:none;stroke-dashoffset:0;stroke-opacity:1"
             sodipodi:type="arc" />
          <path
             style="fill:none;fill-opacity:1;fill-rule:evenodd;stroke:#000000;stroke-width:1.11919916;stroke-linecap:butt;stroke-linejoin:miter;stroke-miterlimit:4;stroke-dasharray:none;stroke-opacity:1"
             d="M 191.73604,322.58136 L 201.80881,322.58136 L 203.20778,323.9803 L 203.20778,354.00628"
             id="path3224"
             sodipodi:nodetypes="cccc" />
          <path
             style="fill:none;fill-opacity:1;fill-rule:evenodd;stroke:#000000;stroke-width:1.11919916;stroke-linecap:butt;stroke-linejoin:miter;stroke-miterlimit:4;stroke-dasharray:none;stroke-opacity:1"
             d="M 191.08899,355.92987 L 201.80881,355.92987 L 203.20778,354.53097 L 203.20778,353.14945"
             id="path3226"
             sodipodi:nodetypes="cccc" />
          <path
             style="fill:none;fill-opacity:1;fill-rule:evenodd;stroke:#000000;stroke-width:1.11919916;stroke-linecap:butt;stroke-linejoin:miter;stroke-miterlimit:4;stroke-dasharray:none;stroke-opacity:1"
             d="M 166.48623,347.32248 L 166.48623,348.70404 L 165.08722,350.10293 L 113.79849,350.10293"
             id="path3234"
             sodipodi:nodetypes="cccc" />
          <path
             style="fill:#000000;fill-opacity:1;fill-rule:evenodd;stroke:#000000;stroke-width:1.11919916;stroke-linecap:butt;stroke-linejoin:miter;stroke-miterlimit:4;stroke-dasharray:none;stroke-opacity:1"
             d="M 111.27328,352.88295 L 111.27328,351.5015 L 112.6723,350.10248 L 114.0539,350.10248"
             id="path3236"
             sodipodi:nodetypes="cccc" />
          <path
             style="fill:none;fill-opacity:1;fill-rule:evenodd;stroke:#000000;stroke-width:1.11919916;stroke-linecap:butt;stroke-linejoin:miter;stroke-miterlimit:4;stroke-dasharray:none;stroke-opacity:1"
             d="M 111.2717,352.6976 L 111.2717,354.07901 L 109.87274,355.47804 L 99.397718,355.47804"
             id="path3238"
             sodipodi:nodetypes="cccc" />
          <path
             style="fill:none;fill-opacity:1;fill-rule:evenodd;stroke:#000000;stroke-width:1.11919916;stroke-linecap:butt;stroke-linejoin:miter;stroke-miterlimit:4;stroke-dasharray:none;stroke-opacity:1"
             d="M 99.454488,355.47804 L 98.073008,355.47804 L 96.674061,354.07901 L 96.674061,352.6976"
             id="path3240"
             sodipodi:nodetypes="cccc" />
          <path
             style="fill:none;fill-opacity:1;fill-rule:evenodd;stroke:#000000;stroke-width:1.11912096;stroke-linecap:butt;stroke-linejoin:miter;stroke-miterlimit:4;stroke-dasharray:none;stroke-opacity:1"
             d="M 120.71219,323.67781 L 82.926567,323.67781 L 81.527602,322.27881 L 81.527602,313.74999"
             id="path3242"
             sodipodi:nodetypes="cccc" />
        </g>
        <g
           id="g3435"
           inkscape:label="Layer 1"
           transform="matrix(1.1172505,0,0,1.1081127,-170.6433,448.16353)"
           style="fill:#000000;fill-opacity:1">
          <path
             sodipodi:nodetypes="cc"
             id="path3059"
             d="M 85.388572,25 C 105.38857,25 146.31497,25 146.31497,25"
             style="fill:#000000;fill-opacity:1;stroke:#000000;stroke-width:3.78795624;stroke-linecap:butt;stroke-linejoin:miter;stroke-miterlimit:4;stroke-dasharray:none;stroke-opacity:1" />
          <path
             id="path3061"
             d="M 40.92097,15 L 20.862067,15"
             style="fill:#000000;fill-opacity:1;stroke:#000000;stroke-width:3.78795624;stroke-linecap:butt;stroke-linejoin:miter;stroke-miterlimit:4;stroke-dasharray:none;stroke-opacity:1"
             sodipodi:nodetypes="cc" />
          <path
             id="path3944"
             d="M 40.950355,35 L 4.9999998,35"
             style="fill:#000000;fill-opacity:1;stroke:#000000;stroke-width:3.78795624;stroke-linecap:butt;stroke-linejoin:miter;stroke-miterlimit:4;stroke-dasharray:none;stroke-opacity:1"
             sodipodi:nodetypes="cc" />
          <g
             transform="translate(41.888572,-39.5)"
             inkscape:label="Layer 1"
             id="g2560"
             style="fill:#000000;fill-opacity:1">
            <path
               sodipodi:nodetypes="ccccsccccsc"
               d="M -2.25,81.500005 C -3.847374,84.144405 -4.5,84.500005 -4.5,84.500005 L -8.15625,84.500005 L -6.15625,82.062505 C -6.15625,82.062505 -0.5,75.062451 -0.5,64.5 C -0.5,53.937549 -6.15625,46.9375 -6.15625,46.9375 L -8.15625,44.5 L -4.5,44.5 C -3.71875,45.4375 -3.078125,46.15625 -2.28125,47.5 C -0.408531,50.599815 2.5,56.526646 2.5,64.5 C 2.5,72.45065 -0.396697,78.379425 -2.25,81.500005 z"
               style="fill:#000000;fill-opacity:1;fill-rule:evenodd;stroke:none;stroke-width:3;stroke-linecap:butt;stroke-linejoin:miter;stroke-opacity:1"
               id="path3516" />
            <path
               sodipodi:nodetypes="ccsccccscccccccccsccsc"
               id="path4973"
               d="M -2.40625,44.5 L -0.40625,46.9375 C -0.40625,46.9375 5.25,53.937549 5.25,64.5 C 5.25,75.062451 -0.40625,82.0625 -0.40625,82.0625 L -2.40625,84.5 L 0.75,84.5 L 14.75,84.5 C 17.158076,84.500001 22.439699,84.524514 28.375,82.09375 C 34.310301,79.662986 40.911536,74.750484 46.0625,65.21875 L 44.75,64.5 L 46.0625,63.78125 C 35.759387,44.71559 19.506574,44.5 14.75,44.5 L 0.75,44.5 L -2.40625,44.5 z M 3.46875,47.5 L 14.75,47.5 C 19.434173,47.5 33.03685,47.369793 42.71875,64.5 C 37.951964,72.929075 32.197469,77.18391 27,79.3125 C 21.639339,81.507924 17.158075,81.500001 14.75,81.5 L 3.5,81.5 C 5.3735884,78.391566 8.25,72.45065 8.25,64.5 C 8.25,56.526646 5.3414686,50.599815 3.46875,47.5 z"
               style="fill:#000000;fill-opacity:1;fill-rule:evenodd;stroke:none;stroke-width:3;stroke-linecap:butt;stroke-linejoin:miter;stroke-opacity:1" />
          </g>
        </g>
        <path
           style="fill:none;fill-opacity:1;fill-rule:evenodd;stroke:#000000;stroke-width:4.21474934;stroke-linecap:butt;stroke-linejoin:miter;stroke-miterlimit:4;stroke-dasharray:none;stroke-opacity:1"
           d="M -236.73786,576.28147 L -236.73786,570.40227 L -231.44776,565.15544 L -226.22366,565.15544"
           id="path2446"
           sodipodi:nodetypes="cccc" />
        <path
           style="fill:none;fill-opacity:1;fill-rule:evenodd;stroke:#000000;stroke-width:4.21474934;stroke-linecap:butt;stroke-linejoin:miter;stroke-miterlimit:4;stroke-dasharray:none;stroke-opacity:1"
           d="M 110.24345,575.94539 L 110.24345,570.7641 L 115.53358,565.51728 L 120.75755,565.51728"
           id="path3218"
           sodipodi:nodetypes="cccc" />
        <path
           style="fill:none;fill-opacity:1;fill-rule:evenodd;stroke:#000000;stroke-width:4.21474934;stroke-linecap:butt;stroke-linejoin:miter;stroke-miterlimit:4;stroke-dasharray:none;stroke-opacity:1"
           d="M 120.74207,585.74924 L 115.51808,585.74924 L 110.22794,580.5024 L 110.22794,575.32121"
           id="path3220"
           sodipodi:nodetypes="cccc" />
        <path
           style="fill:none;fill-opacity:1;fill-rule:evenodd;stroke:#000000;stroke-width:4.21474934;stroke-linecap:butt;stroke-linejoin:miter;stroke-miterlimit:4;stroke-dasharray:none;stroke-opacity:1"
           d="M 61.942203,479.26575 L 61.942203,488.80633 L 56.652063,494.0532 L 51.428038,494.0532"
           id="path3228"
           sodipodi:nodetypes="cccc" />
        <path
           style="fill:none;fill-opacity:1;fill-rule:evenodd;stroke:#000000;stroke-width:4.21474934;stroke-linecap:butt;stroke-linejoin:miter;stroke-miterlimit:4;stroke-dasharray:none;stroke-opacity:1"
           d="M 42.918021,445.59672 L 48.142039,445.59672 L 53.432168,450.84363 L 53.432168,456.02484 L 53.432168,468.8047 L 59.594251,474.91632 L 61.932165,477.23515 L 61.932165,483.18124"
           id="path3230"
           sodipodi:nodetypes="ccccc" />
        <path
           style="fill:none;fill-opacity:1;fill-rule:evenodd;stroke:#000000;stroke-width:4.21474934;stroke-linecap:butt;stroke-linejoin:miter;stroke-miterlimit:4;stroke-dasharray:none;stroke-opacity:1"
           d="M 1.2262597,445.55033 L 1.2262597,470.62691 L -4.0638151,475.87381 L -9.2878401,475.87381"
           id="path3232"
           sodipodi:nodetypes="cccc" />
        <path
           style="fill:#000000;fill-opacity:1;fill-rule:evenodd;stroke:#000000;stroke-width:2.60896254px;stroke-linecap:butt;stroke-linejoin:miter;stroke-opacity:1"
           d="M -226.00442,562.59318 L -231.96466,564.29903"
           id="path2422" />
        <path
           style="fill:#000000;fill-opacity:1;fill-rule:evenodd;stroke:#000000;stroke-width:2.60896254px;stroke-linecap:butt;stroke-linejoin:miter;stroke-opacity:1"
           d="M -225.92173,567.45121 L -231.8819,565.74544"
           id="path3202" />
        <path
           style="fill:none;fill-opacity:1;fill-rule:evenodd;stroke:#000000;stroke-width:2.83532596px;stroke-linecap:butt;stroke-linejoin:miter;stroke-opacity:1"
           d="M 120.94694,562.66903 L 115.14789,564.73966"
           id="path3204" />
        <path
           style="fill:none;fill-opacity:1;fill-rule:evenodd;stroke:#000000;stroke-width:2.83532596px;stroke-linecap:butt;stroke-linejoin:miter;stroke-opacity:1"
           d="M 121.29823,567.43276 L 115.29253,566.05887"
           id="path3206" />
        <path
           style="fill:#000000;fill-opacity:1;fill-rule:evenodd;stroke:#000000;stroke-width:1.92175913px;stroke-linecap:butt;stroke-linejoin:miter;stroke-opacity:1"
           d="M 48.831306,444.44935 L 43.744306,443.3258"
           id="path3208" />
        <path
           style="fill:#000000;fill-opacity:1;fill-rule:evenodd;stroke:#000000;stroke-width:1.92175913px;stroke-linecap:butt;stroke-linejoin:miter;stroke-opacity:1"
           d="M 48.868456,446.65423 L 43.781472,447.77784"
           id="path3210" />
        <path
           style="fill:#000000;fill-opacity:1;fill-rule:evenodd;stroke:#000000;stroke-width:1.89160073px;stroke-linecap:butt;stroke-linejoin:miter;stroke-opacity:1"
           d="M 0.028983792,453.22885 L -1.7580856,448.36865"
           id="path3212" />
        <path
           style="fill:#000000;fill-opacity:1;fill-rule:evenodd;stroke:#000000;stroke-width:1.89160073px;stroke-linecap:butt;stroke-linejoin:miter;stroke-opacity:1"
           d="M 2.2755636,453.23691 L 4.0627475,448.37681"
           id="path3214" />
      </g>
    </g>
  </g>
</svg>
