<svg xmlns="http://www.w3.org/2000/svg" xmlns:xlink="http://www.w3.org/1999/xlink" width="32px" height="32px" viewBox="0 0 32 32" version="1.1">
<g id="surface1">
<path style=" stroke:none;fill-rule:nonzero;fill:rgb(0%,0%,0%);fill-opacity:1;" d="M 16 2.691406 C 23.351562 2.691406 29.332031 8.675781 29.332031 16.027344 C 29.332031 23.378906 23.351562 29.359375 16 29.359375 C 8.648438 29.359375 2.667969 23.378906 2.667969 16.027344 C 2.667969 8.675781 8.648438 2.691406 16 2.691406 Z M 16 0.0273438 C 7.164062 0.0273438 0 7.191406 0 16.027344 C 0 24.863281 7.164062 32.027344 16 32.027344 C 24.835938 32.027344 32 24.863281 32 16.027344 C 32 7.191406 24.835938 0.0273438 16 0.0273438 Z M 16 16.761719 L 8.011719 10.667969 L 23.988281 10.667969 Z M 16 18.476562 L 8 12.304688 L 8 21.332031 L 24 21.332031 L 24 12.304688 Z M 16 18.476562 "/>
</g>
</svg>
