<svg xmlns="http://www.w3.org/2000/svg" xmlns:xlink="http://www.w3.org/1999/xlink" width="32px" height="32px" viewBox="0 0 32 32" version="1.1">
<g id="surface1">
<path style=" stroke:none;fill-rule:nonzero;fill:rgb(0%,0%,0%);fill-opacity:1;" d="M 16 2.667969 C 23.351562 2.667969 29.332031 8.648438 29.332031 16 C 29.332031 23.351562 23.351562 29.332031 16 29.332031 C 8.648438 29.332031 2.667969 23.351562 2.667969 16 C 2.667969 8.648438 8.648438 2.667969 16 2.667969 Z M 16 0 C 7.164062 0 0 7.164062 0 16 C 0 24.835938 7.164062 32 16 32 C 24.835938 32 32 24.835938 32 16 C 32 7.164062 24.835938 0 16 0 Z M 16 8 C 11.582031 8 8 11.582031 8 16 C 8 19.535156 10.292969 22.535156 13.472656 23.589844 C 13.871094 23.664062 14 23.417969 14 23.207031 L 14 21.714844 C 11.773438 22.199219 11.3125 20.773438 11.3125 20.773438 C 10.949219 19.847656 10.421875 19.601562 10.421875 19.601562 C 9.699219 19.105469 10.476562 19.117188 10.476562 19.117188 C 11.28125 19.171875 11.703125 19.941406 11.703125 19.941406 C 12.417969 21.164062 13.574219 20.8125 14.03125 20.605469 C 14.105469 20.089844 14.3125 19.738281 14.539062 19.539062 C 12.761719 19.335938 10.894531 18.648438 10.894531 15.585938 C 10.894531 14.710938 11.207031 13.996094 11.71875 13.4375 C 11.636719 13.234375 11.363281 12.417969 11.796875 11.316406 C 11.796875 11.316406 12.46875 11.101562 13.996094 12.136719 C 14.636719 11.960938 15.320312 11.871094 16 11.867188 C 16.679688 11.871094 17.363281 11.960938 18.003906 12.136719 C 19.53125 11.101562 20.203125 11.316406 20.203125 11.316406 C 20.636719 12.417969 20.363281 13.234375 20.28125 13.433594 C 20.792969 13.996094 21.105469 14.707031 21.105469 15.582031 C 21.105469 18.65625 19.230469 19.332031 17.449219 19.527344 C 17.738281 19.777344 18 20.261719 18 21.007812 L 18 23.203125 C 18 23.417969 18.128906 23.667969 18.535156 23.589844 C 21.710938 22.53125 24 19.535156 24 16 C 24 11.582031 20.417969 8 16 8 Z M 16 8 "/>
</g>
</svg>
