<svg xmlns="http://www.w3.org/2000/svg" xmlns:xlink="http://www.w3.org/1999/xlink" width="32px" height="32px" viewBox="0 0 32 32" version="1.1">
<g id="surface1">
<path style=" stroke:none;fill-rule:nonzero;fill:rgb(0%,0%,0%);fill-opacity:1;" d="M 16 2.667969 C 23.351562 2.667969 29.332031 8.648438 29.332031 16 C 29.332031 23.351562 23.351562 29.332031 16 29.332031 C 8.648438 29.332031 2.667969 23.351562 2.667969 16 C 2.667969 8.648438 8.648438 2.667969 16 2.667969 Z M 16 0 C 7.164062 0 0 7.164062 0 16 C 0 24.835938 7.164062 32 16 32 C 24.835938 32 32 24.835938 32 16 C 32 7.164062 24.835938 0 16 0 Z M 22.152344 8 L 9.847656 8 C 8.824219 8 8 8.828125 8 9.84375 L 8 22.152344 C 8 23.171875 8.824219 24 9.847656 24 L 22.152344 24 C 23.175781 24 24 23.171875 24 22.152344 L 24 9.847656 C 24 8.828125 23.175781 8 22.152344 8 Z M 16 12.925781 C 17.699219 12.925781 19.078125 14.300781 19.078125 16 C 19.078125 17.699219 17.699219 19.074219 16 19.074219 C 14.300781 19.074219 12.925781 17.699219 12.925781 16 C 12.925781 14.300781 14.300781 12.925781 16 12.925781 Z M 22 21.386719 C 22 21.726562 21.722656 22 21.386719 22 L 10.613281 22 C 10.277344 22 10 21.722656 10 21.386719 L 10 14.667969 L 11.265625 14.667969 C 11.207031 14.878906 11.160156 15.09375 11.128906 15.316406 C 11.097656 15.539062 11.078125 15.765625 11.078125 16 C 11.078125 18.71875 13.28125 20.925781 16 20.925781 C 18.71875 20.925781 20.921875 18.71875 20.921875 16 C 20.921875 15.769531 20.902344 15.539062 20.871094 15.316406 C 20.839844 15.09375 20.792969 14.878906 20.734375 14.667969 L 22 14.667969 Z M 22 12.0625 C 22 12.402344 21.722656 12.679688 21.386719 12.679688 L 19.933594 12.679688 C 19.59375 12.679688 19.320312 12.402344 19.320312 12.0625 L 19.320312 10.613281 C 19.320312 10.273438 19.59375 10 19.933594 10 L 21.386719 10 C 21.722656 10 22 10.277344 22 10.613281 Z M 22 12.0625 "/>
</g>
</svg>
