<svg xmlns="http://www.w3.org/2000/svg" xmlns:xlink="http://www.w3.org/1999/xlink" width="32px" height="32px" viewBox="0 0 32 32" version="1.1">
<g id="surface1">
<path style=" stroke:none;fill-rule:nonzero;fill:rgb(0%,0%,0%);fill-opacity:1;" d="M 16 2.667969 C 23.351562 2.667969 29.332031 8.648438 29.332031 16 C 29.332031 23.351562 23.351562 29.332031 16 29.332031 C 8.648438 29.332031 2.667969 23.351562 2.667969 16 C 2.667969 8.648438 8.648438 2.667969 16 2.667969 Z M 16 0 C 7.164062 0 0 7.164062 0 16 C 0 24.835938 7.164062 32 16 32 C 24.835938 32 32 24.835938 32 16 C 32 7.164062 24.835938 0 16 0 Z M 13.332031 10.667969 C 13.332031 11.410156 12.738281 12.011719 12 12.011719 C 11.261719 12.011719 10.667969 11.410156 10.667969 10.667969 C 10.667969 9.925781 11.261719 9.324219 12 9.324219 C 12.738281 9.324219 13.332031 9.925781 13.332031 10.667969 Z M 13.332031 13.332031 L 10.667969 13.332031 L 10.667969 21.332031 L 13.332031 21.332031 Z M 17.332031 13.332031 L 14.667969 13.332031 L 14.667969 21.332031 L 17.332031 21.332031 L 17.332031 17.519531 C 17.332031 15.222656 20.003906 15.011719 20.003906 17.519531 L 20.003906 21.332031 L 22.667969 21.332031 L 22.667969 16.855469 C 22.667969 12.476562 18.496094 12.636719 17.332031 14.789062 Z M 17.332031 13.332031 "/>
</g>
</svg>
