<svg xmlns="http://www.w3.org/2000/svg" xmlns:xlink="http://www.w3.org/1999/xlink" width="32px" height="32px" viewBox="0 0 32 32" version="1.1">
<g id="surface1">
<path style=" stroke:none;fill-rule:nonzero;fill:rgb(0%,0%,0%);fill-opacity:1;" d="M 16 2.667969 C 23.351562 2.667969 29.332031 8.648438 29.332031 16 C 29.332031 23.351562 23.351562 29.332031 16 29.332031 C 8.648438 29.332031 2.667969 23.351562 2.667969 16 C 2.667969 8.648438 8.648438 2.667969 16 2.667969 Z M 16 0 C 7.164062 0 0 7.164062 0 16 C 0 24.835938 7.164062 32 16 32 C 24.835938 32 32 24.835938 32 16 C 32 7.164062 24.835938 0 16 0 Z M 14.28125 19.527344 C 14.28125 20.523438 13.46875 21.332031 12.476562 21.332031 C 11.476562 21.332031 10.667969 20.523438 10.667969 19.527344 C 10.667969 18.53125 11.476562 17.722656 12.472656 17.722656 C 13.46875 17.726562 14.28125 18.53125 14.28125 19.527344 Z M 10.667969 12.546875 L 10.667969 15.21875 C 14.027344 15.25 16.757812 17.976562 16.789062 21.332031 L 19.464844 21.332031 C 19.433594 16.496094 15.511719 12.578125 10.667969 12.546875 Z M 10.667969 10.671875 C 16.542969 10.699219 21.308594 15.449219 21.324219 21.332031 L 24 21.332031 C 23.984375 13.984375 18.027344 8.023438 10.667969 8 Z M 10.667969 10.671875 "/>
</g>
</svg>
