<svg xmlns="http://www.w3.org/2000/svg" xmlns:xlink="http://www.w3.org/1999/xlink" width="32px" height="32px" viewBox="0 0 32 32" version="1.1">
<g id="surface1">
<path style=" stroke:none;fill-rule:nonzero;fill:rgb(0%,0%,0%);fill-opacity:1;" d="M 16 2.667969 C 23.351562 2.667969 29.332031 8.648438 29.332031 16 C 29.332031 23.351562 23.351562 29.332031 16 29.332031 C 8.648438 29.332031 2.667969 23.351562 2.667969 16 C 2.667969 8.648438 8.648438 2.667969 16 2.667969 Z M 16 0 C 7.164062 0 0 7.164062 0 16 C 0 24.835938 7.164062 32 16 32 C 24.835938 32 32 24.835938 32 16 C 32 7.164062 24.835938 0 16 0 Z M 12.386719 20 L 11.667969 20 L 11.667969 14.132812 C 11.890625 13.964844 12.128906 13.820312 12.386719 13.722656 Z M 14.554688 20 L 15.277344 20 L 15.277344 13.292969 C 15.113281 13.484375 14.957031 13.691406 14.828125 13.914062 L 14.554688 13.78125 Z M 13.113281 20 L 13.832031 20 L 13.832031 13.566406 C 13.46875 13.507812 13.382812 13.53125 13.113281 13.558594 Z M 10.222656 20 L 10.945312 20 L 10.945312 14.894531 C 10.71875 15.226562 10.542969 15.601562 10.445312 16.007812 L 10.222656 15.878906 Z M 8.054688 16.183594 C 7.617188 16.578125 7.332031 17.167969 7.332031 17.832031 C 7.332031 18.496094 7.617188 19.082031 8.054688 19.480469 Z M 21.691406 15.695312 C 21.542969 13.628906 19.953125 12 17.996094 12 C 17.257812 12 16.574219 12.238281 16 12.636719 L 16 20 L 22.566406 20 C 23.726562 20 24.667969 18.988281 24.667969 17.738281 C 24.667969 16.117188 23.101562 15 21.691406 15.695312 Z M 9.5 15.671875 C 9.28125 15.65625 9.121094 15.652344 8.777344 15.761719 L 8.777344 19.898438 C 9.101562 20.003906 9.238281 20 9.5 20 Z M 9.5 15.671875 "/>
</g>
</svg>
